# xmcd CD database file
#
# Track frame offsets:
#	150
#	16120
#	32919
#	55115
#	68789
#	96782
#	113019
#	132430
#	144957
#	163436
#	183968
#	207489
#	224103
#	239065
#
# Disc length: 3333 seconds
#
# Revision: 0
# Processed by: cddbd v1.5.2PL0 Copyright (c) Steve Scherf et al.
# Submitted via: CDex 1.81
#
DISCID=d40d030e
DTITLE=Louis Armstrong - at the Crescendo
DYEAR=1955
DGENRE=Jazz
TTITLE0=When it's sleepy time down south
TTITLE1=Jeepers Creepers
TTITLE2=Tiny Roof Blues
TTITLE3=My bucket's got a hole in it
TTITLE4=Rose Room
TTITLE5=Brother Bill
TTITLE6=Lazy river
TTITLE7='tain't what you do
TTITLE8=Perdido
TTITLE9=Blues for bass
TTITLE10=Don't fence me in
TTITLE11=Stomping at the Savoy
TTITLE12=Uncle satchmo's lullaby
TTITLE13=Extra
EXTD=YEAR: 1955
EXTT0=
EXTT1=
EXTT2=
EXTT3=
EXTT4=
EXTT5=
EXTT6=
EXTT7=
EXTT8=
EXTT9=
EXTT10=
EXTT11=
EXTT12=
EXTT13=
PLAYORDER=
